HIERARCHY
ROOT Hips
{
 OFFSET 0.000000 0.000000 0.000000
 CHANNELS 6 Xposition Yposition Zposition Yrotation Xrotation Zrotation
 JOINT Chest
 {
  OFFSET 0.000000 9.857222 0.000240
  CHANNELS 3 Yrotation Xrotation Zrotation
  JOINT Chest2
  {
   OFFSET 0.000000 10.876940 -0.000436
   CHANNELS 3 Yrotation Xrotation Zrotation
   JOINT Chest3
   {
    OFFSET 0.000000 9.827798 0.000000
    CHANNELS 3 Yrotation Xrotation Zrotation
    JOINT Chest4
    {
     OFFSET 0.000000 9.827798 0.000000
     CHANNELS 3 Yrotation Xrotation Zrotation
     JOINT Neck
     {
      OFFSET 0.000000 13.831992 0.000000
      CHANNELS 3 Yrotation Xrotation Zrotation
      JOINT Head
      {
       OFFSET 0.000000 9.147643 -0.001036
       CHANNELS 3 Yrotation Xrotation Zrotation
       End Site
       {
        OFFSET 0.000000 17.515799 -0.000541
       }
      }
     }
     JOINT RightCollar
     {
      OFFSET -3.001579 7.717577 0.000000
      CHANNELS 3 Yrotation Xrotation Zrotation
      JOINT RightShoulder
      {
       OFFSET -14.002642 0.000000 0.000000
       CHANNELS 3 Yrotation Xrotation Zrotation
       JOINT RightElbow
       {
        OFFSET -30.053852 0.000000 0.000000
        CHANNELS 3 Yrotation Xrotation Zrotation
        JOINT RightWrist
        {
         OFFSET -24.564923 0.000000 -0.000000
         CHANNELS 3 Yrotation Xrotation Zrotation
         End Site
         {
          OFFSET -18.334355 0.000000 0.000000
         }
        }
       }
      }
     }
     JOINT LeftCollar
     {
      OFFSET 3.001579 7.717577 0.000000
      CHANNELS 3 Yrotation Xrotation Zrotation
      JOINT LeftShoulder
      {
       OFFSET 14.002642 0.000000 0.000000
       CHANNELS 3 Yrotation Xrotation Zrotation
       JOINT LeftElbow
       {
        OFFSET 30.053852 0.000000 0.000000
        CHANNELS 3 Yrotation Xrotation Zrotation
        JOINT LeftWrist
        {
         OFFSET 24.564923 0.000000 -0.000000
         CHANNELS 3 Yrotation Xrotation Zrotation
         End Site
         {
          OFFSET 18.334355 0.000000 0.000000
         }
        }
       }
      }
     }
    }
   }
  }
 }
 JOINT RightHip
 {
  OFFSET -8.003235 -0.001175 -0.000120
  CHANNELS 3 Yrotation Xrotation Zrotation
  JOINT RightKnee
  {
   OFFSET 0.000000 -41.759727 0.000113
   CHANNELS 3 Yrotation Xrotation Zrotation
   JOINT RightAnkle
   {
    OFFSET 0.000000 -40.728748 0.000159
    CHANNELS 3 Yrotation Xrotation Zrotation
    JOINT RightToe
    {
     OFFSET 0.000000 -6.515296 14.732841
     CHANNELS 3 Yrotation Xrotation Zrotation
     End Site
     {
      OFFSET 0.000000 -1.502839 6.412115
     }
    }
   }
  }
 }
 JOINT LeftHip
 {
  OFFSET 8.003235 -0.001175 -0.000120
  CHANNELS 3 Yrotation Xrotation Zrotation
  JOINT LeftKnee
  {
   OFFSET 0.000000 -41.759727 0.000113
   CHANNELS 3 Yrotation Xrotation Zrotation
   JOINT LeftAnkle
   {
    OFFSET 0.000000 -40.728748 0.000159
    CHANNELS 3 Yrotation Xrotation Zrotation
    JOINT LeftToe
    {
     OFFSET 0.000000 -6.515296 14.732841
     CHANNELS 3 Yrotation Xrotation Zrotation
     End Site
     {
      OFFSET 0.000000 -1.502839 6.412115
     }
    }
   }
  }
 }
}
MOTION
Frames: 7
Frame Time: 0.016667
-0.220395 90.582630 14.304108 -30.470175 -20.807386 -1.694772 -1.901432 6.778335 -1.181609 -0.701857 2.929154 -0.453328 -0.701857 2.929154 -0.453328 -0.524104 2.197391 -0.336556 -4.704622 27.583462 0.964777 -8.571251 15.216406 2.689231 7.511564 8.227426 1.746246 85.025719 27.961148 27.693776 93.055234 48.906604 -4.896108 -9.694873 15.904138 -64.860411 -19.263691 16.364743 -4.266939 -25.880857 15.136916 5.899759 -122.340553 31.808938 18.733736 -9.324656 13.504104 28.262590 -4.551956 29.975894 -2.851720 -2.695672 -4.646327 3.607156 -1.449415 -5.959484 0.776414 0.032065 0.123607 -0.172586 4.449273 19.708824 6.232045 -2.759529 4.107365 -3.643151 0.320659 -3.558649 -0.504808 0.035358 0.043849 -0.065863
-0.203505 90.593251 14.202365 -30.622210 -20.842714 -1.719633 -1.915445 6.735098 -1.023860 -0.747829 2.914124 -0.421613 -0.747829 2.914124 -0.421613 -0.558739 2.186114 -0.312573 -4.508339 27.827206 0.720976 -8.165603 15.639412 2.201672 8.216376 9.312163 1.552494 86.073273 27.973207 28.692564 89.761391 50.950853 -6.344656 -9.962622 16.305906 -65.288427 -19.531160 17.392878 -4.741584 -27.063647 14.515965 4.621947 -119.593368 34.722063 17.247857 -9.739793 14.815362 31.456643 -4.354712 29.895516 -2.674106 -2.697223 -4.573274 3.507797 -1.530524 -5.900990 0.842032 0.082138 0.119735 -0.170238 5.115555 19.595747 6.410358 -2.980552 4.199505 -3.467249 0.211895 -3.531897 -0.548308 0.017727 0.034875 -0.093113
-0.209994 90.618959 14.091069 -30.758064 -20.996204 -1.704488 -1.938220 6.596658 -1.019267 -0.788635 2.888503 -0.450702 -0.788635 2.888503 -0.450702 -0.589219 2.166964 -0.334226 -4.258282 28.154148 0.612185 -7.691685 16.225511 1.939938 8.883443 10.311365 1.637249 86.870863 27.986661 29.380284 86.483165 52.996618 -7.480342 -10.196738 16.573724 -65.828308 -19.632496 18.784598 -4.973222 -28.014392 13.983469 3.993380 -117.538532 37.268995 15.429157 -9.021606 16.915482 34.502156 -4.422855 29.955771 -2.688190 -2.658729 -4.559126 3.458424 -1.441424 -5.753911 0.919091 0.071560 0.059133 -0.196338 5.434191 19.608846 6.507473 -2.971690 4.327075 -3.366006 0.116281 -3.464514 -0.597982 0.044988 -0.033291 -0.101697
-0.217710 90.651368 13.975556 -30.834359 -21.111732 -1.658463 -1.916046 6.468718 -1.151142 -0.789462 2.866573 -0.517339 -0.789462 2.866573 -0.517339 -0.589545 2.150604 -0.384219 -4.018184 28.444067 0.645449 -7.265741 16.753907 1.936278 9.302476 11.102105 1.871909 87.750635 27.848307 30.186803 83.392931 55.079245 -7.959685 -10.573311 16.720191 -66.661440 -19.849796 19.476475 -4.872076 -28.809380 14.180643 3.357028 -115.546721 40.273737 13.740355 -7.918473 18.274538 36.496546 -4.678285 29.991240 -2.859692 -2.601024 -4.584724 3.472661 -1.255440 -5.577172 1.013116 0.001424 -0.007937 -0.246773 5.537324 19.598995 6.534463 -2.969166 4.436035 -3.328412 0.101929 -3.364229 -0.623454 0.081197 -0.121909 -0.107235
-0.234798 90.666533 13.861135 -30.863386 -20.945461 -1.628493 -1.772337 6.238787 -1.335312 -0.729378 2.762490 -0.604151 -0.729378 2.762490 -0.604151 -0.544195 2.072594 -0.449727 -3.852889 28.721622 0.789045 -6.994583 17.269982 2.144882 9.350522 11.620993 2.224985 89.094708 27.764685 31.390153 80.146215 56.993803 -7.942757 -11.254650 16.792607 -67.678691 -20.115475 20.243046 -4.541917 -29.940919 14.849477 2.779561 -113.541808 43.151872 11.977124 -7.050142 19.273583 38.077842 -5.044824 29.801267 -2.963594 -2.435725 -4.684674 3.410016 -1.192452 -5.449068 1.070289 0.026845 -0.017697 -0.249856 5.809214 19.322671 6.524609 -3.227890 4.488583 -3.152238 0.180744 -3.311924 -0.671224 0.047809 -0.142294 -0.144033
-0.247702 90.649325 13.752353 -30.842290 -20.498696 -1.576466 -1.581256 5.843500 -1.553121 -0.644407 2.561996 -0.695136 -0.644407 2.561996 -0.695136 -0.480310 1.922235 -0.518563 -3.775794 29.021152 0.980853 -6.888077 17.833879 2.455376 9.223071 11.893879 2.559198 90.787730 27.760696 32.936957 76.523922 58.831066 -7.619304 -12.263100 16.905554 -68.808010 -20.485720 21.362509 -4.279097 -31.155258 15.392001 2.493347 -112.011509 45.553228 9.667175 -6.867938 20.219615 38.981750 -5.471952 29.351235 -3.069750 -2.048602 -4.812862 3.285694 -1.281877 -5.416831 1.162751 0.023243 0.056665 -0.258326 6.138312 18.790133 6.483140 -3.551147 4.482663 -2.981653 0.209443 -3.299904 -0.700435 0.006862 -0.090847 -0.182332
-0.258759 90.617811 13.646888 -30.811514 -20.060440 -1.492499 -1.431896 5.456667 -1.693251 -0.589863 2.381352 -0.751432 -0.589863 2.381352 -0.751432 -0.439405 1.786744 -0.561194 -3.789055 29.274823 1.102679 -6.928807 18.312820 2.661051 9.044834 12.431273 2.482170 92.458642 27.720948 34.019771 72.602278 60.581305 -7.016775 -13.194776 17.047453 -69.851534 -21.027331 22.044452 -4.322340 -32.103949 16.114648 2.372573 -110.703711 48.556610 6.675555 -6.838319 20.763332 39.147240 -5.698158 28.887151 -3.172499 -1.803928 -4.893115 3.244018 -1.268575 -5.438088 1.265761 -0.065105 0.155658 -0.305667 6.344837 18.285221 6.448541 -3.696303 4.460206 -2.939994 0.127792 -3.280268 -0.689097 0.014989 -0.033169 -0.199731
